<?xml version="1.0" encoding="UTF-8" standalone="no"?>
<!-- Created with Inkscape (http://www.inkscape.org/) -->

<svg
   xmlns:dc="http://purl.org/dc/elements/1.1/"
   xmlns:cc="http://creativecommons.org/ns#"
   xmlns:rdf="http://www.w3.org/1999/02/22-rdf-syntax-ns#"
   xmlns:svg="http://www.w3.org/2000/svg"
   xmlns="http://www.w3.org/2000/svg"
   xmlns:sodipodi="http://sodipodi.sourceforge.net/DTD/sodipodi-0.dtd"
   xmlns:inkscape="http://www.inkscape.org/namespaces/inkscape"
   width="136.53334"
   height="136.53334"
   viewBox="0 0 33.866666 33.866668"
   id="svg2"
   version="1.1"
   inkscape:version="0.92.1 r15371"
   sodipodi:docname="miami.svg"
   inkscape:export-filename="/home/woelper/Documents/theme-lifeonmars/lom.png"
   inkscape:export-xdpi="95.249992"
   inkscape:export-ydpi="95.249992">
  <defs
     id="defs4">
    <clipPath
       clipPathUnits="userSpaceOnUse"
       id="clipPath4172">
      <rect
         style="fill:none;stroke:#000000;stroke-width:2.08579516;stroke-miterlimit:4;stroke-dasharray:none"
         id="rect4174"
         width="31.402275"
         height="32.633419"
         x="45.829025"
         y="61.685333"
         ry="4.6619277"
         transform="matrix(0.73005523,-0.68338815,0.68517218,0.72838114,0,0)" />
    </clipPath>
    <clipPath
       clipPathUnits="userSpaceOnUse"
       id="clipPath4176">
      <rect
         style="fill:none;stroke:#000000;stroke-width:2.08501816;stroke-miterlimit:4;stroke-dasharray:none"
         id="rect4178"
         width="32.000004"
         height="32.000004"
         x="46.701359"
         y="60.488018"
         ry="4.5714397" />
    </clipPath>
  </defs>
  <sodipodi:namedview
     id="base"
     pagecolor="#ffffff"
     bordercolor="#666666"
     borderopacity="1.0"
     inkscape:pageopacity="0.0"
     inkscape:pageshadow="2"
     inkscape:zoom="5.6"
     inkscape:cx="72.429556"
     inkscape:cy="65.877472"
     inkscape:document-units="mm"
     inkscape:current-layer="layer1"
     showgrid="false"
     units="px"
     inkscape:window-width="3840"
     inkscape:window-height="2086"
     inkscape:window-x="0"
     inkscape:window-y="0"
     inkscape:window-maximized="1" />
  <metadata
     id="metadata7">
    <rdf:RDF>
      <cc:Work
         rdf:about="">
        <dc:format>image/svg+xml</dc:format>
        <dc:type
           rdf:resource="http://purl.org/dc/dcmitype/StillImage" />
        <dc:title></dc:title>
      </cc:Work>
    </rdf:RDF>
  </metadata>
  <g
     inkscape:label="Layer 1"
     inkscape:groupmode="layer"
     id="layer1"
     transform="translate(0,-263.13332)">
    <rect
       style="fill:#1ad3d6;stroke:none;stroke-width:3.84288931;stroke-miterlimit:4;stroke-dasharray:none;fill-opacity:1"
       id="rect4141-1"
       width="57.657879"
       height="60.330574"
       x="33.444859"
       y="54.622704"
       ry="8.6186743"
       clip-path="url(#clipPath4176)"
       transform="translate(-45.703089,203.65938)"
       inkscape:export-xdpi="95"
       inkscape:export-ydpi="95" />
    <path
       style="fill:#ff6aad;fill-opacity:1;stroke-width:0.08267095"
       d="m 13.564453,296.08016 c -0.02533,-0.0411 0.249046,-0.26186 0.609716,-0.49083 l 0.655761,-0.41634 -0.04703,-0.45565 -0.04703,-0.45563 0.50891,-0.0249 0.508909,-0.0249 -0.420939,-0.57676 c -0.231518,-0.31721 -0.390414,-0.58683 -0.353107,-0.59915 0.03731,-0.0124 0.439853,0.0843 0.894542,0.21476 0.45469,0.13043 0.835939,0.22961 0.847217,0.2204 0.06689,-0.0547 0.353991,-1.71406 0.42858,-2.47711 0.0506,-0.51764 0.08827,-2.84859 0.08827,-5.46145 0,-3.91247 -0.02266,-4.78022 -0.159941,-6.12397 -0.171709,-1.68078 -0.245517,-2.10016 -0.51323,-2.91631 l -0.171893,-0.52401 -0.287552,0.27601 c -0.158155,0.1518 -0.378418,0.45381 -0.489474,0.67112 -0.236096,0.46199 -0.399292,1.54966 -0.3276,2.18339 0.0267,0.23597 0.01954,0.44698 -0.01592,0.46888 -0.190263,0.11761 -0.915522,-0.80261 -1.177871,-1.49446 -0.105239,-0.27752 -0.220926,-0.86744 -0.275684,-1.40572 l -0.09436,-0.92751 -0.361708,0.18348 c -0.495057,0.25111 -1.297963,1.00331 -1.874735,1.75633 -0.52513,0.68561 -0.542991,0.68537 -0.70188,-0.01 -0.139767,-0.61124 -0.105004,-1.28145 0.09407,-1.81352 0.213136,-0.56965 1.039309,-1.45193 1.707441,-1.82338 0.238667,-0.1327 0.433977,-0.26648 0.434023,-0.29731 1.65e-4,-0.0925 -0.884381,-0.1737 -1.215807,-0.11155 -0.866888,0.16264 -1.415691,0.46421 -2.6283075,1.44426 l -0.7440387,0.60133 -0.025574,-0.43928 c -0.049305,-0.84678 0.5812751,-2.23412 1.2455606,-2.74037 0.7783426,-0.59316 1.5190386,-0.80765 3.0336876,-0.87847 l 1.112175,-0.0519 -0.429523,-0.42237 c -0.669962,-0.6588 -1.70209,-1.09488 -2.933877,-1.23958 -0.262725,-0.0308 -0.4955432,-0.085 -0.5173732,-0.12033 -0.069698,-0.11278 0.8922942,-0.65616 1.4789202,-0.83538 1.404661,-0.42914 2.689888,0.18659 3.689542,1.76761 0.339377,0.53675 0.345011,0.53584 0.736559,-0.11798 0.516914,-0.86317 1.517147,-1.75502 2.299467,-2.05031 0.711968,-0.26873 1.481676,-0.20426 2.277422,0.19077 0.329452,0.16353 0.726695,0.40475 0.882766,0.53602 l 0.283764,0.23868 -0.530311,0.10437 c -1.397181,0.27487 -2.583247,0.9771 -3.406957,2.01712 l -0.259264,0.32735 0.766899,-0.06 c 1.129733,-0.0884 2.142991,-0.0612 2.635917,0.0706 0.846166,0.22638 1.523458,0.77287 1.845926,1.48944 0.189815,0.4218 0.187245,0.42249 -0.9705,0.26146 -1.251942,-0.17416 -2.559298,-0.24819 -3.127997,-0.17713 l -0.481278,0.0601 0.474328,0.1928 c 0.260881,0.10598 0.621864,0.29501 0.802182,0.41998 0.478349,0.33149 1.20164,1.14276 1.44237,1.61783 0.199624,0.39393 0.368415,1.22652 0.248655,1.22652 -0.03127,0 -0.361977,-0.18322 -0.734887,-0.40717 -1.280418,-0.76892 -2.868798,-1.25473 -2.868798,-0.87742 0,0.0664 0.07148,0.42916 0.158839,0.80604 0.140197,0.60482 0.382435,2.40353 0.671226,4.98413 0.121255,1.08352 0.238559,4.28704 0.298726,8.15823 l 0.04843,3.11532 0.68969,-0.34204 c 0.379331,-0.18814 0.716301,-0.31546 0.748825,-0.28293 0.03252,0.0325 -0.02849,0.43032 -0.135594,0.88402 -0.107095,0.45368 -0.170794,0.84881 -0.141539,0.87806 0.02925,0.0293 0.361381,-0.0242 0.738063,-0.11884 0.376681,-0.0946 0.709259,-0.14605 0.739062,-0.11427 0.0298,0.0318 -0.106674,0.4185 -0.303272,0.85939 l -0.357462,0.8016 0.366245,0.30011 c 0.201435,0.16506 0.345013,0.33447 0.319062,0.37645 -0.06191,0.10017 -7.61755,0.10202 -7.679439,10e-4 z"
       id="path245"
       inkscape:connector-curvature="0"
       inkscape:export-xdpi="95"
       inkscape:export-ydpi="95" />
  </g>
</svg>
